#N canvas 61 317 475 257 10;
#X obj 8 15 vu 15 120 volfone empty -1 -8 0 10 -66577 -1 1 0;
#X obj 68 15 vu 15 120 vol1 empty -1 -8 0 10 -66577 -1 1 0;
#X obj 118 15 vu 15 120 vol2 empty -1 -8 0 10 -66577 -1 1 0;
#X obj 168 15 vu 15 120 vol3 empty -1 -8 0 10 -66577 -1 1 0;
#X obj 218 15 vu 15 120 vol4 empty -1 -8 0 10 -66577 -1 1 0;
#X obj 268 15 vu 15 120 vol5 empty -1 -8 0 10 -66577 -1 1 0;
#X obj 318 15 vu 15 120 vol6 empty -1 -8 0 10 -66577 -1 1 0;
#X obj 368 15 vu 15 120 vol7 empty -1 -8 0 10 -66577 -1 1 0;
#X obj 418 15 vu 15 120 vol8 empty -1 -8 0 10 -66577 -1 1 0;
#X obj 68 -17 tgl 15 0 streama1 empty empty 17 7 0 10 -262144 -1 -1
0 1;
#X obj 118 -17 tgl 15 0 streama2 empty empty 17 7 0 10 -262144 -1 -1
0 1;
#X obj 168 -17 tgl 15 0 streama3 empty empty 17 7 0 10 -262144 -1 -1
0 1;
#X obj 218 -17 tgl 15 0 streama4 empty empty 17 7 0 10 -262144 -1 -1
0 1;
#X obj 268 -17 tgl 15 0 streama5 empty empty 17 7 0 10 -262144 -1 -1
0 1;
#X obj 318 -17 tgl 15 0 streama6 empty empty 17 7 0 10 -262144 -1 -1
0 1;
#X obj 368 -17 tgl 15 0 streama7 empty empty 17 7 0 10 -262144 -1 -1
0 1;
#X obj 418 -17 tgl 15 0 streama8 empty empty 17 7 0 10 -262144 -1 -1
0 1;
#N canvas 634 616 619 321 stream 0;
#N canvas 73 230 602 480 stream1 0;
#X floatatom 18 524 0 0 0 0 - - -;
#X msg 185 250 disconnect;
#X msg 213 352 print;
#X floatatom 97 502 10 0 0 0 - - -;
#X text 131 154 connect <host> <mountpoint> <port>;
#X text 168 502 ogg pages;
#X text 48 527 connection state;
#X text 378 337 channels: 1 or 2 (default);
#X text 210 304 vbr <samplerate> <channels> <quality>;
#X text 330 326 quality settings: 0 - 1 (low - hi);
#X text 227 412 possible tags: TITLE \, ARTIST \, PERFORMER \, DESCRIPTION
\,;
#X text 316 425 GENRE \, LOCATION \, COPYRIGHT \, CONTACT \, DATE;
#X obj 18 475 oggcast~ 2 512;
#X text 252 353 print current settings to console window;
#X text 225 373 comment: <TAG> <content>;
#X text 228 444 '_' (underline) or '=' (equal sign) will get replaced
with spaces!;
#X text 240 493 default is 2 channels and 512k;
#X text 241 505 bytes buffer size;
#X text 119 475 creation arguments: oggcast~ <channels> <buffer size>
;
#X msg 195 285 vorbis 44100 2 144 128 96;
#X text 19 6 oggcast~ 0.2f - send Ogg Vorbis stream to IceCast2 or
JRoar;
#X text 195 268 vorbis <samplerate> <channels> <max.br> <nom.br> <min.br>
;
#X msg 210 320 vbr 44100 2 0.6;
#X msg 129 120 server 1;
#X text 188 121 choose new Icecast2 (final) as server type;
#X obj 18 63 inlet~;
#X obj 33 110 inlet~;
#X msg 225 390 ARTIST habibbr;
#X obj 231 40 loadbang;
#X obj 347 42 tgl 15 0 empty streama1 empty 17 7 0 10 -262144 -1 -1
0 1;
#X obj 341 74 sel 0 1;
#X msg 133 172 connect estudiolivre.org fpfsala01 8000;
#X msg 100 57 passwd fpf;
#X msg 338 388 DESCRIPTION sala-de-debates-01;
#X obj 413 102 del 1000;
#X connect 1 0 12 0;
#X connect 2 0 12 0;
#X connect 12 0 0 0;
#X connect 12 1 3 0;
#X connect 19 0 12 0;
#X connect 22 0 12 0;
#X connect 23 0 12 0;
#X connect 25 0 12 0;
#X connect 26 0 12 1;
#X connect 27 0 12 0;
#X connect 28 0 23 0;
#X connect 29 0 30 0;
#X connect 30 0 1 0;
#X connect 30 1 32 0;
#X connect 30 1 19 0;
#X connect 30 1 22 0;
#X connect 30 1 27 0;
#X connect 30 1 33 0;
#X connect 30 1 34 0;
#X connect 31 0 12 0;
#X connect 32 0 12 0;
#X connect 33 0 12 0;
#X connect 34 0 31 0;
#X connect 34 0 2 0;
#X restore 17 78 pd stream1;
#X obj 45 41 inlet~;
#X obj 115 61 inlet~;
#X obj 185 81 inlet~;
#X obj 255 101 inlet~;
#X obj 325 121 inlet~;
#X obj 395 141 inlet~;
#X obj 465 161 inlet~;
#X obj 535 181 inlet~;
#N canvas 73 230 602 480 stream2 0;
#X floatatom 18 524 0 0 0 0 - - -;
#X msg 185 250 disconnect;
#X msg 213 352 print;
#X floatatom 97 502 10 0 0 0 - - -;
#X text 131 154 connect <host> <mountpoint> <port>;
#X text 168 502 ogg pages;
#X text 48 527 connection state;
#X text 378 337 channels: 1 or 2 (default);
#X text 210 304 vbr <samplerate> <channels> <quality>;
#X text 330 326 quality settings: 0 - 1 (low - hi);
#X text 227 412 possible tags: TITLE \, ARTIST \, PERFORMER \, DESCRIPTION
\,;
#X text 316 425 GENRE \, LOCATION \, COPYRIGHT \, CONTACT \, DATE;
#X obj 18 475 oggcast~ 2 512;
#X text 252 353 print current settings to console window;
#X text 225 373 comment: <TAG> <content>;
#X text 228 444 '_' (underline) or '=' (equal sign) will get replaced
with spaces!;
#X text 240 493 default is 2 channels and 512k;
#X text 241 505 bytes buffer size;
#X text 119 475 creation arguments: oggcast~ <channels> <buffer size>
;
#X msg 195 285 vorbis 44100 2 144 128 96;
#X text 19 6 oggcast~ 0.2f - send Ogg Vorbis stream to IceCast2 or
JRoar;
#X text 195 268 vorbis <samplerate> <channels> <max.br> <nom.br> <min.br>
;
#X msg 210 320 vbr 44100 2 0.6;
#X msg 129 120 server 1;
#X text 188 121 choose new Icecast2 (final) as server type;
#X obj 18 63 inlet~;
#X obj 33 110 inlet~;
#X msg 225 390 ARTIST habibbr;
#X obj 231 40 loadbang;
#X obj 347 42 tgl 15 0 empty streama2 empty 17 7 0 10 -262144 -1 -1
0 1;
#X obj 341 74 sel 0 1;
#X msg 338 388 DESCRIPTION sala-de-debates-01;
#X obj 413 102 del 1000;
#X msg 133 172 connect estudiolivre.org fpfsala2 8000;
#X msg 100 57 passwd fpf;
#X connect 1 0 12 0;
#X connect 2 0 12 0;
#X connect 12 0 0 0;
#X connect 12 1 3 0;
#X connect 19 0 12 0;
#X connect 22 0 12 0;
#X connect 23 0 12 0;
#X connect 25 0 12 0;
#X connect 26 0 12 1;
#X connect 27 0 12 0;
#X connect 28 0 23 0;
#X connect 29 0 30 0;
#X connect 30 0 1 0;
#X connect 30 1 31 0;
#X connect 30 1 32 0;
#X connect 30 1 22 0;
#X connect 30 1 19 0;
#X connect 30 1 34 0;
#X connect 30 1 27 0;
#X connect 31 0 12 0;
#X connect 32 0 2 0;
#X connect 32 0 33 0;
#X connect 33 0 12 0;
#X connect 34 0 12 0;
#X restore 87 98 pd stream2;
#N canvas 73 230 602 480 stream3 0;
#X floatatom 18 524 0 0 0 0 - - -;
#X msg 185 250 disconnect;
#X msg 213 352 print;
#X floatatom 97 502 10 0 0 0 - - -;
#X text 131 154 connect <host> <mountpoint> <port>;
#X text 168 502 ogg pages;
#X text 48 527 connection state;
#X text 378 337 channels: 1 or 2 (default);
#X text 210 304 vbr <samplerate> <channels> <quality>;
#X text 330 326 quality settings: 0 - 1 (low - hi);
#X text 227 412 possible tags: TITLE \, ARTIST \, PERFORMER \, DESCRIPTION
\,;
#X text 316 425 GENRE \, LOCATION \, COPYRIGHT \, CONTACT \, DATE;
#X obj 18 475 oggcast~ 2 512;
#X text 252 353 print current settings to console window;
#X text 225 373 comment: <TAG> <content>;
#X text 228 444 '_' (underline) or '=' (equal sign) will get replaced
with spaces!;
#X text 240 493 default is 2 channels and 512k;
#X text 241 505 bytes buffer size;
#X text 119 475 creation arguments: oggcast~ <channels> <buffer size>
;
#X msg 195 285 vorbis 44100 2 144 128 96;
#X text 19 6 oggcast~ 0.2f - send Ogg Vorbis stream to IceCast2 or
JRoar;
#X text 195 268 vorbis <samplerate> <channels> <max.br> <nom.br> <min.br>
;
#X msg 210 320 vbr 44100 2 0.6;
#X msg 129 120 server 1;
#X text 188 121 choose new Icecast2 (final) as server type;
#X obj 18 63 inlet~;
#X obj 33 110 inlet~;
#X msg 225 390 ARTIST habibbr;
#X obj 231 40 loadbang;
#X obj 347 42 tgl 15 0 empty streama3 empty 17 7 0 10 -262144 -1 -1
0 1;
#X obj 341 74 sel 0 1;
#X msg 338 388 DESCRIPTION sala-de-debates-01;
#X obj 431 94 del 1000;
#X msg 100 57 passwd fpf;
#X msg 133 172 connect estudiolivre.org fpfsala3 8000;
#X connect 1 0 12 0;
#X connect 2 0 12 0;
#X connect 12 0 0 0;
#X connect 12 1 3 0;
#X connect 19 0 12 0;
#X connect 22 0 12 0;
#X connect 23 0 12 0;
#X connect 25 0 12 0;
#X connect 26 0 12 1;
#X connect 27 0 12 0;
#X connect 28 0 23 0;
#X connect 29 0 30 0;
#X connect 30 0 1 0;
#X connect 30 1 31 0;
#X connect 30 1 32 0;
#X connect 30 1 33 0;
#X connect 30 1 19 0;
#X connect 30 1 22 0;
#X connect 30 1 27 0;
#X connect 31 0 12 0;
#X connect 32 0 2 0;
#X connect 32 0 34 0;
#X connect 33 0 12 0;
#X connect 34 0 12 0;
#X restore 157 118 pd stream3;
#N canvas 73 230 602 480 stream4 0;
#X floatatom 18 524 0 0 0 0 - - -;
#X msg 185 250 disconnect;
#X msg 213 352 print;
#X floatatom 97 502 10 0 0 0 - - -;
#X text 131 154 connect <host> <mountpoint> <port>;
#X text 272 45 get latest version at;
#X text 168 502 ogg pages;
#X text 48 527 connection state;
#X text 378 337 channels: 1 or 2 (default);
#X text 210 304 vbr <samplerate> <channels> <quality>;
#X text 330 326 quality settings: 0 - 1 (low - hi);
#X text 227 412 possible tags: TITLE \, ARTIST \, PERFORMER \, DESCRIPTION
\,;
#X text 316 425 GENRE \, LOCATION \, COPYRIGHT \, CONTACT \, DATE;
#X obj 18 475 oggcast~ 2 512;
#X text 273 34 written by Olaf Matthes <olaf.matthes@gmx.de>;
#X text 252 353 print current settings to console window;
#X text 225 373 comment: <TAG> <content>;
#X text 228 444 '_' (underline) or '=' (equal sign) will get replaced
with spaces!;
#X text 240 493 default is 2 channels and 512k;
#X text 241 505 bytes buffer size;
#X text 119 475 creation arguments: oggcast~ <channels> <buffer size>
;
#X msg 195 285 vorbis 44100 2 144 128 96;
#X text 19 6 oggcast~ 0.2f - send Ogg Vorbis stream to IceCast2 or
JRoar;
#X text 274 59 http://www.akustische-kunst.org/puredata/;
#X text 195 268 vorbis <samplerate> <channels> <max.br> <nom.br> <min.br>
;
#X msg 210 320 vbr 44100 2 0.6;
#X msg 129 120 server 1;
#X text 188 121 choose new Icecast2 (final) as server type;
#X obj 18 63 inlet~;
#X obj 33 110 inlet~;
#X msg 225 390 ARTIST habibbr;
#X obj 231 40 loadbang;
#X obj 347 42 tgl 15 0 empty streama4 empty 17 7 0 10 -262144 -1 -1
0 1;
#X obj 341 74 sel 0 1;
#X msg 338 388 DESCRIPTION sala-de-debates-01;
#X obj 413 102 del 1000;
#X msg 100 57 passwd fpf;
#X msg 133 172 connect estudiolivre.org fpfsala4 8000;
#X connect 1 0 13 0;
#X connect 2 0 13 0;
#X connect 13 0 0 0;
#X connect 13 1 3 0;
#X connect 21 0 13 0;
#X connect 25 0 13 0;
#X connect 26 0 13 0;
#X connect 28 0 13 0;
#X connect 29 0 13 1;
#X connect 30 0 13 0;
#X connect 31 0 26 0;
#X connect 32 0 33 0;
#X connect 33 0 1 0;
#X connect 33 1 34 0;
#X connect 33 1 35 0;
#X connect 33 1 30 0;
#X connect 33 1 25 0;
#X connect 33 1 21 0;
#X connect 34 0 13 0;
#X connect 35 0 2 0;
#X connect 35 0 37 0;
#X connect 36 0 13 0;
#X connect 37 0 13 0;
#X restore 227 138 pd stream4;
#N canvas 73 230 602 480 stream5 0;
#X floatatom 18 524 0 0 0 0 - - -;
#X msg 185 250 disconnect;
#X msg 213 352 print;
#X floatatom 97 502 10 0 0 0 - - -;
#X text 131 154 connect <host> <mountpoint> <port>;
#X text 168 502 ogg pages;
#X text 48 527 connection state;
#X text 378 337 channels: 1 or 2 (default);
#X text 210 304 vbr <samplerate> <channels> <quality>;
#X text 330 326 quality settings: 0 - 1 (low - hi);
#X text 227 412 possible tags: TITLE \, ARTIST \, PERFORMER \, DESCRIPTION
\,;
#X text 316 425 GENRE \, LOCATION \, COPYRIGHT \, CONTACT \, DATE;
#X obj 18 475 oggcast~ 2 512;
#X text 252 353 print current settings to console window;
#X text 225 373 comment: <TAG> <content>;
#X text 228 444 '_' (underline) or '=' (equal sign) will get replaced
with spaces!;
#X text 240 493 default is 2 channels and 512k;
#X text 241 505 bytes buffer size;
#X text 119 475 creation arguments: oggcast~ <channels> <buffer size>
;
#X msg 195 285 vorbis 44100 2 144 128 96;
#X text 19 6 oggcast~ 0.2f - send Ogg Vorbis stream to IceCast2 or
JRoar;
#X text 195 268 vorbis <samplerate> <channels> <max.br> <nom.br> <min.br>
;
#X msg 210 320 vbr 44100 2 0.6;
#X msg 129 120 server 1;
#X text 188 121 choose new Icecast2 (final) as server type;
#X obj 18 63 inlet~;
#X obj 33 110 inlet~;
#X msg 225 390 ARTIST habibbr;
#X obj 231 40 loadbang;
#X obj 347 42 tgl 15 0 empty streama5 empty 17 7 0 10 -262144 -1 -1
0 1;
#X obj 341 74 sel 0 1;
#X msg 338 388 DESCRIPTION sala-de-debates-01;
#X obj 413 102 del 1000;
#X msg 100 57 passwd fpf;
#X msg 133 172 connect estudiolivre.org fpfsala5 8000;
#X connect 1 0 12 0;
#X connect 2 0 12 0;
#X connect 12 0 0 0;
#X connect 12 1 3 0;
#X connect 19 0 12 0;
#X connect 22 0 12 0;
#X connect 23 0 12 0;
#X connect 25 0 12 0;
#X connect 26 0 12 1;
#X connect 27 0 12 0;
#X connect 28 0 23 0;
#X connect 29 0 30 0;
#X connect 30 0 1 0;
#X connect 30 1 31 0;
#X connect 30 1 32 0;
#X connect 30 1 19 0;
#X connect 30 1 22 0;
#X connect 30 1 27 0;
#X connect 31 0 12 0;
#X connect 32 0 2 0;
#X connect 32 0 34 0;
#X connect 33 0 12 0;
#X connect 34 0 12 0;
#X restore 297 158 pd stream5;
#N canvas 73 230 602 480 stream6 0;
#X floatatom 18 524 0 0 0 0 - - -;
#X msg 185 250 disconnect;
#X msg 213 352 print;
#X floatatom 97 502 10 0 0 0 - - -;
#X text 131 154 connect <host> <mountpoint> <port>;
#X text 168 502 ogg pages;
#X text 48 527 connection state;
#X text 378 337 channels: 1 or 2 (default);
#X text 210 304 vbr <samplerate> <channels> <quality>;
#X msg 100 57 passwd letmein;
#X text 330 326 quality settings: 0 - 1 (low - hi);
#X text 227 412 possible tags: TITLE \, ARTIST \, PERFORMER \, DESCRIPTION
\,;
#X text 316 425 GENRE \, LOCATION \, COPYRIGHT \, CONTACT \, DATE;
#X obj 18 475 oggcast~ 2 512;
#X text 252 353 print current settings to console window;
#X text 225 373 comment: <TAG> <content>;
#X text 228 444 '_' (underline) or '=' (equal sign) will get replaced
with spaces!;
#X text 240 493 default is 2 channels and 512k;
#X text 241 505 bytes buffer size;
#X text 119 475 creation arguments: oggcast~ <channels> <buffer size>
;
#X msg 195 285 vorbis 44100 2 144 128 96;
#X text 19 6 oggcast~ 0.2f - send Ogg Vorbis stream to IceCast2 or
JRoar;
#X text 195 268 vorbis <samplerate> <channels> <max.br> <nom.br> <min.br>
;
#X msg 210 320 vbr 44100 2 0.6;
#X msg 129 120 server 1;
#X text 188 121 choose new Icecast2 (final) as server type;
#X obj 18 63 inlet~;
#X obj 33 110 inlet~;
#X msg 225 390 ARTIST habibbr;
#X obj 231 40 loadbang;
#X obj 347 42 tgl 15 0 empty streama6 empty 17 7 0 10 -262144 -1 -1
0 1;
#X obj 341 74 sel 0 1;
#X msg 338 388 DESCRIPTION sala-de-debates-01;
#X obj 413 102 del 1000;
#X msg 133 172 connect estudiolivre.org fpfsala6 8000;
#X connect 1 0 13 0;
#X connect 2 0 13 0;
#X connect 9 0 13 0;
#X connect 13 0 0 0;
#X connect 13 1 3 0;
#X connect 20 0 13 0;
#X connect 23 0 13 0;
#X connect 24 0 13 0;
#X connect 26 0 13 0;
#X connect 27 0 13 1;
#X connect 28 0 13 0;
#X connect 29 0 24 0;
#X connect 30 0 31 0;
#X connect 31 0 1 0;
#X connect 31 1 32 0;
#X connect 31 1 33 0;
#X connect 31 1 28 0;
#X connect 31 1 23 0;
#X connect 31 1 20 0;
#X connect 32 0 13 0;
#X connect 33 0 2 0;
#X connect 33 0 34 0;
#X connect 34 0 13 0;
#X restore 367 178 pd stream6;
#N canvas 73 230 602 480 stream7 0;
#X floatatom 18 524 0 0 0 0 - - -;
#X msg 185 250 disconnect;
#X msg 213 352 print;
#X floatatom 97 502 10 0 0 0 - - -;
#X text 131 154 connect <host> <mountpoint> <port>;
#X text 168 502 ogg pages;
#X text 48 527 connection state;
#X text 378 337 channels: 1 or 2 (default);
#X text 210 304 vbr <samplerate> <channels> <quality>;
#X text 330 326 quality settings: 0 - 1 (low - hi);
#X text 227 412 possible tags: TITLE \, ARTIST \, PERFORMER \, DESCRIPTION
\,;
#X text 316 425 GENRE \, LOCATION \, COPYRIGHT \, CONTACT \, DATE;
#X msg 133 172 connect localhost puredata.ogg 8000;
#X obj 18 475 oggcast~ 2 512;
#X text 252 353 print current settings to console window;
#X text 225 373 comment: <TAG> <content>;
#X text 228 444 '_' (underline) or '=' (equal sign) will get replaced
with spaces!;
#X text 240 493 default is 2 channels and 512k;
#X text 241 505 bytes buffer size;
#X text 119 475 creation arguments: oggcast~ <channels> <buffer size>
;
#X msg 195 285 vorbis 44100 2 144 128 96;
#X text 19 6 oggcast~ 0.2f - send Ogg Vorbis stream to IceCast2 or
JRoar;
#X text 195 268 vorbis <samplerate> <channels> <max.br> <nom.br> <min.br>
;
#X msg 210 320 vbr 44100 2 0.6;
#X msg 129 120 server 1;
#X text 188 121 choose new Icecast2 (final) as server type;
#X obj 18 63 inlet~;
#X obj 33 110 inlet~;
#X msg 225 390 ARTIST habibbr;
#X obj 231 40 loadbang;
#X obj 347 42 tgl 15 0 empty streama7 empty 17 7 0 10 -262144 -1 -1
0 1;
#X obj 341 74 sel 0 1;
#X msg 338 388 DESCRIPTION sala-de-debates-01;
#X obj 413 102 del 1000;
#X msg 98 57 passwd fpf;
#X connect 1 0 13 0;
#X connect 2 0 13 0;
#X connect 12 0 13 0;
#X connect 13 0 0 0;
#X connect 13 1 3 0;
#X connect 20 0 13 0;
#X connect 23 0 13 0;
#X connect 24 0 13 0;
#X connect 26 0 13 0;
#X connect 27 0 13 1;
#X connect 28 0 13 0;
#X connect 29 0 24 0;
#X connect 30 0 31 0;
#X connect 31 0 1 0;
#X connect 31 1 32 0;
#X connect 31 1 33 0;
#X connect 31 1 20 0;
#X connect 31 1 23 0;
#X connect 32 0 13 0;
#X connect 33 0 2 0;
#X connect 33 0 12 0;
#X connect 34 0 13 0;
#X restore 437 198 pd stream7;
#N canvas 73 230 602 480 stream8 0;
#X floatatom 18 524 0 0 0 0 - - -;
#X msg 185 250 disconnect;
#X msg 213 352 print;
#X floatatom 97 502 10 0 0 0 - - -;
#X text 131 154 connect <host> <mountpoint> <port>;
#X text 168 502 ogg pages;
#X text 48 527 connection state;
#X text 378 337 channels: 1 or 2 (default);
#X text 210 304 vbr <samplerate> <channels> <quality>;
#X text 330 326 quality settings: 0 - 1 (low - hi);
#X text 227 412 possible tags: TITLE \, ARTIST \, PERFORMER \, DESCRIPTION
\,;
#X text 316 425 GENRE \, LOCATION \, COPYRIGHT \, CONTACT \, DATE;
#X obj 18 475 oggcast~ 2 512;
#X text 252 353 print current settings to console window;
#X text 225 373 comment: <TAG> <content>;
#X text 228 444 '_' (underline) or '=' (equal sign) will get replaced
with spaces!;
#X text 240 493 default is 2 channels and 512k;
#X text 241 505 bytes buffer size;
#X text 119 475 creation arguments: oggcast~ <channels> <buffer size>
;
#X msg 195 285 vorbis 44100 2 144 128 96;
#X text 19 6 oggcast~ 0.2f - send Ogg Vorbis stream to IceCast2 or
JRoar;
#X text 195 268 vorbis <samplerate> <channels> <max.br> <nom.br> <min.br>
;
#X msg 210 320 vbr 44100 2 0.6;
#X msg 129 120 server 1;
#X text 188 121 choose new Icecast2 (final) as server type;
#X obj 18 63 inlet~;
#X obj 33 110 inlet~;
#X msg 225 390 ARTIST habibbr;
#X obj 231 40 loadbang;
#X obj 347 42 tgl 15 0 empty streama8 empty 17 7 0 10 -262144 -1 -1
0 1;
#X obj 341 74 sel 0 1;
#X msg 338 388 DESCRIPTION sala-de-debates-01;
#X obj 413 102 del 1000;
#X msg 133 172 connect estudiolivre.org fpfsala8 8000;
#X msg 100 57 passwd fpf;
#X connect 1 0 12 0;
#X connect 2 0 12 0;
#X connect 12 0 0 0;
#X connect 12 1 3 0;
#X connect 19 0 12 0;
#X connect 22 0 12 0;
#X connect 23 0 12 0;
#X connect 25 0 12 0;
#X connect 26 0 12 1;
#X connect 27 0 12 0;
#X connect 28 0 23 0;
#X connect 29 0 30 0;
#X connect 30 0 1 0;
#X connect 30 1 31 0;
#X connect 30 1 32 0;
#X connect 30 1 19 0;
#X connect 30 1 22 0;
#X connect 30 1 27 0;
#X connect 31 0 12 0;
#X connect 32 0 2 0;
#X connect 32 0 33 0;
#X connect 33 0 12 0;
#X connect 34 0 12 0;
#X restore 507 218 pd stream8;
#X connect 1 0 0 0;
#X connect 1 0 0 1;
#X connect 2 0 9 0;
#X connect 2 0 9 1;
#X connect 3 0 10 0;
#X connect 3 0 10 1;
#X connect 4 0 11 0;
#X connect 4 0 11 1;
#X connect 5 0 12 0;
#X connect 5 0 12 1;
#X connect 6 0 13 0;
#X connect 6 0 13 1;
#X connect 7 0 14 0;
#X connect 7 0 14 1;
#X connect 8 0 15 0;
#X connect 8 0 15 1;
#X restore 96 -49 pd stream --------;
#N canvas 571 323 603 587 source 0;
#X msg 468 508 \; pd dsp 1;
#X msg 534 508 \; pd dsp 0;
#X obj 468 482 loadbang;
#X obj 87 54 adc~ 1 2 3 4 5 6 7 8;
#X obj 74 212 vu 15 120 empty empty -1 -8 0 10 -66577 -1 1 0;
#X obj 127 213 vu 15 120 empty empty -1 -8 0 10 -66577 -1 1 0;
#X obj 177 213 vu 15 120 empty empty -1 -8 0 10 -66577 -1 1 0;
#X obj 227 213 vu 15 120 empty empty -1 -8 0 10 -66577 -1 1 0;
#X obj 277 213 vu 15 120 empty empty -1 -8 0 10 -66577 -1 1 0;
#X obj 327 213 vu 15 120 empty empty -1 -8 0 10 -66577 -1 1 0;
#X obj 377 213 vu 15 120 empty empty -1 -8 0 10 -66577 -1 1 0;
#X obj 427 213 vu 15 120 empty empty -1 -8 0 10 -66577 -1 1 0;
#X floatatom 50 185 5 0 0 0 - - vol1;
#X floatatom 102 185 5 0 0 0 - - vol2;
#X floatatom 150 185 5 0 0 0 - - vol3;
#X floatatom 202 185 5 0 0 0 - - vol4;
#X floatatom 250 185 5 0 0 0 - - vol5;
#X floatatom 302 185 5 0 0 0 - - vol6;
#X floatatom 350 185 5 0 0 0 - - vol7;
#X floatatom 402 185 5 0 0 0 - - vol8;
#X obj 34 382 outlet~;
#X obj 84 382 outlet~;
#X obj 134 382 outlet~;
#X obj 184 382 outlet~;
#X obj 234 382 outlet~;
#X obj 284 382 outlet~;
#X obj 334 382 outlet~;
#X obj 384 382 outlet~;
#X obj 39 84 *~;
#X obj 69 84 *~;
#X obj 99 84 *~;
#X obj 129 84 *~;
#X obj 159 84 *~;
#X obj 189 84 *~;
#X obj 219 84 *~;
#X obj 249 84 *~;
#X obj 114 118 env~;
#X obj 151 120 env~;
#X obj 188 120 env~;
#X obj 226 120 env~;
#X obj 261 120 env~;
#X obj 300 120 env~;
#X obj 340 119 env~;
#X obj 80 119 env~;
#X obj 80 139 - 80;
#X obj 114 138 - 80;
#X obj 151 140 - 80;
#X obj 188 140 - 80;
#X obj 226 140 - 80;
#X obj 261 140 - 80;
#X obj 300 140 - 80;
#X obj 340 139 - 80;
#X floatatom 28 37 5 0 0 0 - volfone1 -;
#X floatatom 63 37 5 0 0 0 - volfone2 -;
#X floatatom 98 37 5 0 0 0 - volfone3 -;
#X floatatom 133 37 5 0 0 0 - volfone4 -;
#X floatatom 168 37 5 0 0 0 - volfone5 -;
#X floatatom 203 37 5 0 0 0 - volfone6 -;
#X floatatom 238 37 5 0 0 0 - volfone7 -;
#X floatatom 273 37 5 0 0 0 - volfone8 -;
#X connect 2 0 0 0;
#X connect 3 0 28 0;
#X connect 3 1 29 0;
#X connect 3 2 30 0;
#X connect 3 3 31 0;
#X connect 3 4 32 0;
#X connect 3 5 33 0;
#X connect 3 6 34 0;
#X connect 3 7 35 0;
#X connect 28 0 20 0;
#X connect 28 0 43 0;
#X connect 29 0 21 0;
#X connect 29 0 36 0;
#X connect 30 0 22 0;
#X connect 30 0 37 0;
#X connect 31 0 23 0;
#X connect 31 0 38 0;
#X connect 32 0 24 0;
#X connect 32 0 39 0;
#X connect 33 0 25 0;
#X connect 33 0 40 0;
#X connect 34 0 26 0;
#X connect 34 0 41 0;
#X connect 35 0 27 0;
#X connect 35 0 42 0;
#X connect 36 0 45 0;
#X connect 37 0 46 0;
#X connect 38 0 47 0;
#X connect 39 0 48 0;
#X connect 40 0 49 0;
#X connect 41 0 50 0;
#X connect 42 0 51 0;
#X connect 43 0 44 0;
#X connect 44 0 12 0;
#X connect 44 0 4 0;
#X connect 45 0 13 0;
#X connect 45 0 5 0;
#X connect 46 0 14 0;
#X connect 46 0 6 0;
#X connect 47 0 15 0;
#X connect 47 0 7 0;
#X connect 48 0 16 0;
#X connect 48 0 8 0;
#X connect 49 0 17 0;
#X connect 49 0 9 0;
#X connect 50 0 18 0;
#X connect 50 0 10 0;
#X connect 51 0 19 0;
#X connect 51 0 11 0;
#X connect 52 0 28 1;
#X connect 53 0 29 1;
#X connect 54 0 30 1;
#X connect 55 0 31 1;
#X connect 56 0 32 1;
#X connect 57 0 33 1;
#X connect 58 0 34 1;
#X connect 59 0 35 1;
#X restore 155 -86 pd source --------;
#X obj 88 -17 tgl 15 0 fone1 empty empty 17 7 0 10 -262144 -1 -1 1
1;
#X obj 138 -17 tgl 15 0 fone2 empty empty 17 7 0 10 -262144 -1 -1 0
1;
#X obj 188 -17 tgl 15 0 fone3 empty empty 17 7 0 10 -262144 -1 -1 0
1;
#X obj 238 -17 tgl 15 0 fone4 empty empty 17 7 0 10 -262144 -1 -1 0
1;
#X obj 288 -17 tgl 15 0 fone5 empty empty 17 7 0 10 -262144 -1 -1 0
1;
#X obj 338 -17 tgl 15 0 fone6 empty empty 17 7 0 10 -262144 -1 -1 0
1;
#X obj 388 -17 tgl 15 0 fone7 empty empty 17 7 0 10 -262144 -1 -1 0
1;
#X obj 438 -17 tgl 15 0 fone8 empty empty 17 7 0 10 -262144 -1 -1 0
1;
#N canvas 0 0 450 300 out 1;
#X obj 331 15 inlet~;
#X obj 341 25 inlet~;
#X obj 351 35 inlet~;
#X obj 361 45 inlet~;
#X obj 371 55 inlet~;
#X obj 381 65 inlet~;
#X obj 391 75 inlet~;
#X obj 401 85 inlet~;
#X obj 25 30 spigot~;
#X obj 73 18 tgl 15 0 empty fone1 empty 17 7 0 10 -262144 -1 -1 1 1
;
#X obj 35 40 spigot~;
#X obj 83 28 tgl 15 0 empty fone2 empty 17 7 0 10 -262144 -1 -1 0 1
;
#X obj 45 50 spigot~;
#X obj 93 38 tgl 15 0 empty fone3 empty 17 7 0 10 -262144 -1 -1 0 1
;
#X obj 55 60 spigot~;
#X obj 103 48 tgl 15 0 empty fone4 empty 17 7 0 10 -262144 -1 -1 0
1;
#X obj 65 70 spigot~;
#X obj 113 58 tgl 15 0 empty fone5 empty 17 7 0 10 -262144 -1 -1 0
1;
#X obj 75 80 spigot~;
#X obj 123 68 tgl 15 0 empty fone6 empty 17 7 0 10 -262144 -1 -1 0
1;
#X obj 85 90 spigot~;
#X obj 133 78 tgl 15 0 empty fone7 empty 17 7 0 10 -262144 -1 -1 0
1;
#X obj 95 100 spigot~;
#X obj 143 88 tgl 15 0 empty fone8 empty 17 7 0 10 -262144 -1 -1 0
1;
#X obj 10 159 dac~;
#X obj 20 96 *~;
#X floatatom 64 127 5 0 1 0 - fonevol -;
#X obj 79 170 env~;
#X obj 81 191 - 80;
#X floatatom 82 220 5 0 0 0 - - volfone;
#X connect 0 0 8 0;
#X connect 1 0 10 0;
#X connect 2 0 12 0;
#X connect 3 0 14 0;
#X connect 4 0 16 0;
#X connect 5 0 18 0;
#X connect 6 0 20 0;
#X connect 7 0 22 0;
#X connect 8 1 25 0;
#X connect 9 0 8 1;
#X connect 10 1 25 0;
#X connect 11 0 10 1;
#X connect 12 1 25 0;
#X connect 13 0 12 1;
#X connect 14 1 25 0;
#X connect 15 0 14 1;
#X connect 16 1 25 0;
#X connect 17 0 16 1;
#X connect 18 1 25 0;
#X connect 19 0 18 1;
#X connect 20 1 25 0;
#X connect 21 0 20 1;
#X connect 22 1 25 0;
#X connect 23 0 22 1;
#X connect 25 0 24 0;
#X connect 25 0 24 1;
#X connect 25 0 27 0;
#X connect 26 0 25 1;
#X connect 27 0 28 0;
#X connect 28 0 29 0;
#X restore 214 -49 pd out --------;
#X obj 8 -12 knob 16 16 0 1 0 0 fonevol empty empty 0 -8 128 8 -262144
-1 -1 0 1;
#X obj 68 146 knob 16 16 0 1 0 0 volfone1 empty empty 0 -8 128 8 -262144
-1 -1 0 1;
#X obj 118 146 knob 16 16 0 1 0 0 volfone2 empty empty 0 -8 128 8 -262144
-1 -1 0 1;
#X obj 168 146 knob 16 16 0 1 0 0 volfone3 empty empty 0 -8 128 8 -262144
-1 -1 0 1;
#X obj 218 146 knob 16 16 0 1 0 0 volfone4 empty empty 0 -8 128 8 -262144
-1 -1 0 1;
#X obj 268 146 knob 16 16 0 1 0 0 volfone5 empty empty 0 -8 128 8 -262144
-1 -1 0 1;
#X obj 318 146 knob 16 16 0 1 0 0 volfone6 empty empty 0 -8 128 8 -262144
-1 -1 0 1;
#X obj 368 146 knob 16 16 0 1 0 0 volfone7 empty empty 0 -8 128 8 -262144
-1 -1 0 1;
#X obj 418 146 knob 16 16 0 1 0 0 volfone8 empty empty 0 -8 128 8 -262144
-1 -1 0 1;
#X obj 6 -89 cnv 15 500 70 empty empty empty 20 12 0 14 -99865 -66577
0;
#X text 68 -33 s;
#X text 88 -33 f;
#X text 118 -33 s;
#X text 138 -33 f;
#X text 168 -33 s;
#X text 188 -33 f;
#X text 218 -33 s;
#X text 238 -33 f;
#X text 268 -33 s;
#X text 288 -33 f;
#X text 318 -33 s;
#X text 338 -33 f;
#X text 368 -33 s;
#X text 388 -33 f;
#X text 418 -33 s;
#X text 438 -33 f;
#X text 15 -72 S8-A-OGG;
#X text 25 -54 STREAMMER;
#X text 5 -33 FONE;
#X connect 18 0 17 0;
#X connect 18 0 27 0;
#X connect 18 1 17 1;
#X connect 18 1 27 1;
#X connect 18 2 17 2;
#X connect 18 2 27 2;
#X connect 18 3 17 3;
#X connect 18 3 27 3;
#X connect 18 4 17 4;
#X connect 18 4 27 4;
#X connect 18 5 17 5;
#X connect 18 5 27 5;
#X connect 18 6 17 6;
#X connect 18 6 27 6;
#X connect 18 7 17 7;
#X connect 18 7 27 7;
